<?xml version="1.0" encoding="utf-8"?>
<!-- Generator: Adobe Illustrator 26.0.0, SVG Export Plug-In . SVG Version: 6.00 Build 0)  -->
<svg version="1.1" xmlns="http://www.w3.org/2000/svg" xmlns:xlink="http://www.w3.org/1999/xlink" x="0px" y="0px"
	 viewBox="0 0 50 50" style="enable-background:new 0 0 50 50;" xml:space="preserve">
<style type="text/css">
	.st0{display:none;}
	.st1{display:inline;}
	.st2{fill:#6366f1;}
</style>
<g id="Capa_2" class="st0">
	<rect y="0" class="st1" width="50" height="50"/>
</g>
<g id="Capa_1">
	<g class="st0">
		<g transform="scale(4,4)" class="st1">
			<path class="st2" d="M9.38,1.56H3.12c-0.86,0-1.56,0.7-1.56,1.56v6.25c0,0.86,0.7,1.56,1.56,1.56h3.32V7.62H5.27V6.25h1.17V5.27
				c0-1.37,0.78-2.15,1.95-2.15c0.61,0,0.98,0.2,0.98,0.2v1.17H8.59c-0.56,0-0.78,0.41-0.78,0.78v0.98h1.37l-0.2,1.37H7.81v3.32
				h1.56c0.86,0,1.56-0.7,1.56-1.56V3.12C10.94,2.26,10.24,1.56,9.38,1.56z"/>
		</g>
	</g>
	<g>
		<g transform="scale(8,8)">
			<path class="st2" d="M2.15,0.76c-0.76,0-1.39,0.63-1.39,1.39V4.1c0,0.76,0.63,1.39,1.39,1.39H4.1c0.76,0,1.39-0.63,1.39-1.39
				V2.15c0-0.76-0.63-1.39-1.39-1.39H2.15z M2.15,1.19H4.1c0.53,0,0.96,0.43,0.96,0.96V4.1c0,0.53-0.43,0.96-0.96,0.96H2.15
				c-0.53,0-0.96-0.43-0.96-0.96V2.15C1.19,1.62,1.62,1.19,2.15,1.19z M4.39,1.66c-0.11,0-0.19,0.09-0.19,0.19s0.09,0.19,0.19,0.19
				c0.11,0,0.19-0.09,0.19-0.19S4.5,1.66,4.39,1.66z M3.12,1.84c-0.71,0-1.29,0.58-1.29,1.29s0.58,1.29,1.29,1.29
				s1.29-0.58,1.29-1.29S3.83,1.84,3.12,1.84z M3.12,2.27c0.48,0,0.86,0.38,0.86,0.86S3.6,3.98,3.12,3.98S2.27,3.6,2.27,3.12
				S2.65,2.27,3.12,2.27z"/>
		</g>
	</g>
	<g class="st0">
		<g transform="scale(5.12,5.12)" class="st1">
			<path class="st2" d="M7.71,1.14H2.06c-0.49,0-0.88,0.4-0.88,0.88v5.65c0,0.49,0.4,0.88,0.88,0.88h5.65c0.49,0,0.88-0.4,0.88-0.88
				V2.02C8.59,1.53,8.2,1.14,7.71,1.14z M7,4.38c-0.04,0-0.08,0.01-0.12,0.01c-0.46,0-0.87-0.24-1.11-0.6c0,0.95,0,2.02,0,2.04
				c0,0.83-0.67,1.51-1.51,1.51S2.76,6.65,2.76,5.82s0.67-1.51,1.51-1.51c0.03,0,0.06,0,0.09,0v0.74c-0.03,0-0.06-0.01-0.09-0.01
				C3.84,5.05,3.5,5.4,3.5,5.82s0.34,0.77,0.77,0.77s0.8-0.33,0.8-0.76c0-0.02,0.01-3.46,0.01-3.46h0.71C5.85,3,6.36,3.5,7,3.55
				V4.38z"/>
		</g>
	</g>
	<g class="st0">
		<g transform="scale(5.12,5.12)" class="st1">
			<path class="st2" d="M2.41,1.17c-0.68,0-1.24,0.55-1.24,1.24v4.95c0,0.68,0.55,1.24,1.24,1.24h4.95c0.68,0,1.24-0.55,1.24-1.24
				V2.41c0-0.68-0.55-1.24-1.24-1.24H2.41z M2.78,2.76h1.4l1,1.42l1.21-1.42h0.44l-1.45,1.7L7.16,7h-1.4L4.61,5.36L3.2,7H2.76
				l1.64-1.93L2.78,2.76z M3.45,3.12l2.49,3.53h0.54L4,3.12H3.45z"/>
		</g>
	</g>
	<g class="st0">
		<g transform="scale(5.12,5.12)" class="st1">
			<path class="st2" d="M8.57,2.98C8.5,2.58,8.15,2.29,7.76,2.2c-0.6-0.13-1.7-0.22-2.9-0.22c-1.2,0-2.32,0.09-2.92,0.22
				c-0.4,0.09-0.74,0.36-0.82,0.78c-0.07,0.45-0.15,1.09-0.15,1.9s0.07,1.45,0.16,1.9c0.07,0.4,0.42,0.69,0.82,0.78
				c0.63,0.13,1.72,0.22,2.92,0.22s2.28-0.09,2.92-0.22c0.4-0.09,0.74-0.36,0.82-0.78c0.07-0.45,0.16-1.11,0.18-1.9
				C8.75,4.07,8.66,3.43,8.57,2.98z M3.88,6.15V3.61l2.21,1.27L3.88,6.15z"/>
		</g>
	</g>
</g>
</svg>
