<?xml version="1.0" encoding="utf-8"?>
<!-- Generator: Adobe Illustrator 26.0.0, SVG Export Plug-In . SVG Version: 6.00 Build 0)  -->
<svg version="1.1" id="Capa_1" xmlns="http://www.w3.org/2000/svg" xmlns:xlink="http://www.w3.org/1999/xlink" x="0px" y="0px"
	 viewBox="0 0 50 50" style="enable-background:new 0 0 50 50;" xml:space="preserve">
<style type="text/css">
	.st0{display:none;}
	.st1{display:inline;}
	.st2{fill:#FFFFFF;}
	.st3{fill:#6366F1;}
</style>
<g id="Capa_2_00000151518255130594496850000004157974675896906914_" class="st0">
	<rect class="st1" width="50" height="50"/>
</g>
<g id="Capa_1_00000150090862504222041080000010887092277943228589_">
	<g class="st0">
		<g transform="scale(4,4)" class="st1">
			<path class="st2" d="M9.4,1.6H3.1c-0.9,0-1.6,0.7-1.6,1.6v6.2c0,0.9,0.7,1.6,1.6,1.6h3.3V7.6H5.3V6.2h1.2v-1c0-1.4,0.8-2.2,2-2.2
				c0.6,0,1,0.2,1,0.2v1.2H8.6C8,4.5,7.8,4.9,7.8,5.3v1h1.4L9,7.6H7.8v3.3h1.6c0.9,0,1.6-0.7,1.6-1.6V3.1C10.9,2.3,10.2,1.6,9.4,1.6
				z"/>
		</g>
	</g>
	<g class="st0">
		<g transform="scale(8,8)" class="st1">
			<path class="st2" d="M2.2,0.8c-0.8,0-1.4,0.6-1.4,1.4v1.9c0,0.8,0.6,1.4,1.4,1.4h1.9c0.8,0,1.4-0.6,1.4-1.4V2.2
				c0-0.8-0.6-1.4-1.4-1.4C4.1,0.8,2.2,0.8,2.2,0.8z M2.2,1.2h1.9c0.5,0,1,0.4,1,1v1.9c0,0.5-0.4,1-1,1H2.2c-0.5,0-1-0.4-1-1V2.2
				C1.2,1.6,1.6,1.2,2.2,1.2z M4.4,1.7c-0.1,0-0.2,0.1-0.2,0.2S4.3,2,4.4,2c0.1,0,0.2-0.1,0.2-0.2S4.5,1.7,4.4,1.7z M3.1,1.8
				c-0.7,0-1.3,0.6-1.3,1.3s0.6,1.3,1.3,1.3s1.3-0.6,1.3-1.3S3.8,1.8,3.1,1.8z M3.1,2.3C3.6,2.3,4,2.7,4,3.1S3.6,4,3.1,4
				S2.3,3.6,2.3,3.1S2.7,2.3,3.1,2.3z"/>
		</g>
	</g>
	<g class="st0">
		<g transform="scale(5.12,5.12)" class="st1">
			<path class="st2" d="M7.7,1.2H2.1C1.6,1.2,1.2,1.6,1.2,2v5.6c0,0.5,0.4,0.9,0.9,0.9h5.7c0.5,0,0.9-0.4,0.9-0.9V2.1
				C8.6,1.6,8.2,1.2,7.7,1.2z M7,4.4c0,0-0.1,0-0.1,0C6.4,4.4,6,4.2,5.8,3.8c0,0.9,0,2,0,2c0,0.8-0.7,1.5-1.5,1.5S2.8,6.7,2.8,5.9
				s0.7-1.5,1.5-1.5c0,0,0.1,0,0.1,0v0.7c0,0-0.1,0-0.1,0c-0.4,0-0.8,0.3-0.8,0.8s0.3,0.8,0.8,0.8s0.8-0.3,0.8-0.8c0,0,0-3.5,0-3.5
				h0.7C5.8,3,6.4,3.5,7,3.6V4.4z"/>
		</g>
	</g>
	<g>
		<g transform="scale(5.12,5.12)">
			<path class="st3" d="M2.4,1.2c-0.7,0-1.2,0.6-1.2,1.2v4.9c0,0.7,0.5,1.2,1.2,1.2h4.9C8,8.6,8.6,8,8.6,7.4V2.4
				c0-0.7-0.6-1.2-1.2-1.2C7.4,1.2,2.4,1.2,2.4,1.2z M2.8,2.8h1.4l1,1.4l1.2-1.4h0.4L5.4,4.5L7.2,7H5.8L4.6,5.4L3.2,7H2.8l1.6-1.9
				L2.8,2.8z M3.5,3.1l2.5,3.5h0.5L4,3.1H3.5z"/>
		</g>
	</g>
	<g class="st0">
		<g transform="scale(5.12,5.12)" class="st1">
			<path class="st2" d="M8.6,3C8.5,2.6,8.1,2.3,7.8,2.2C7.2,2.1,6.1,2,4.9,2S2.5,2.1,1.9,2.2C1.5,2.3,1.2,2.6,1.1,3
				C1.1,3.4,1,4.1,1,4.9S1,6.3,1.1,6.8C1.2,7.2,1.6,7.5,2,7.6c0.6,0.1,1.7,0.2,2.9,0.2s2.3-0.1,2.9-0.2c0.4-0.1,0.7-0.4,0.8-0.8
				c0.1-0.4,0.2-1.1,0.2-1.9C8.8,4.1,8.7,3.4,8.6,3z M3.9,6.2V3.6l2.2,1.3L3.9,6.2z"/>
		</g>
	</g>
</g>
</svg>
