<svg id="5e5c5473-c9b3-4281-952f-d8a1313c3d93" data-name="Capa 3" xmlns="http://www.w3.org/2000/svg" viewBox="0 0 167.42 132.77"><title>alien</title><path d="M195.69,113.37a1.24,1.24,0,0,0-.42-0.45,4.49,4.49,0,0,0,.22-1.36c-0.79-4.75-1.39-9.55-2.48-14.24C189.36,81.64,182.32,67.71,171.16,56,163,47.4,153.49,41.3,141.52,39.69c-1.89-.26-3.81-0.33-5.71-0.48,2.7,2.66,5.51,4.94,8.07,7.47a20.67,20.67,0,0,1,2.83,3.52,29.27,29.27,0,0,1,1.49,2.58,7.41,7.41,0,0,0,.86,1.76c0.22,0.47.43,0.94,0.63,1.42l0.09-.1c0.17,0.36.32,0.73,0.47,1.12a1.23,1.23,0,0,0,0,.59,39.77,39.77,0,0,1,1.51,6.09,85.13,85.13,0,0,1,.57,9.48c-0.34,16-6.58,29.51-15.92,41.91,0.47,0.17.72,0.28,1,.35q6,1.61,11.93,3.19a2.23,2.23,0,0,0,3-1.13c8-12.25,13.32-25.42,14.07-40.2,0-1,.22-2,0.33-3.07a3.52,3.52,0,0,1,1.18,1.17c8.64,12.84,12.68,27.17,13.65,42.47,0.16,2.46.2,4.92,0.33,7.39,0,0.34-.24,1.05.62,0.72l-1,2.38c-19.9,1-39.36-1.24-57.42-11.05l3.82-5.28c4-5.54,7.9-11.15,10.54-17.5,3.82-9.18,6.22-18.63,4.74-28.68-1.26-8.64-5.29-15.75-12.48-20.8-7.87-5.53-16.69-6.8-26-4.87-14.42,3-23.36,15.22-24,28.81a53.29,53.29,0,0,0,2.73,18.84c2.68,8.52,7.18,16,12.56,23.08,1.63,2.14,3.21,4.32,4.89,6.58-17.94,10.15-37.36,12.62-57.43,12L43,126.77a3.54,3.54,0,0,0,.24-0.85,115.72,115.72,0,0,1,1.3-17.74,80.11,80.11,0,0,1,10.06-29c0.77-1.32,1.58-2.62,2.39-4L56.67,75,57,75.07l1.32,6.29c0.27,2,.52,4,0.89,6,2.17,11.29,7.15,21.36,13.49,30.84a2.36,2.36,0,0,0,2.93,1c4-1.16,7.92-2.27,11.88-3.41a10.12,10.12,0,0,0,1-.42C77,100.78,70.53,84.74,72.13,66a35.1,35.1,0,0,1,1.11-6l0.1,0a3,3,0,0,0,0-.46A34,34,0,0,1,75,55.09l0.23-.23-0.1-.08a33.42,33.42,0,0,1,6-9c2.12-2.13,4.52-4,6.81-6a27.81,27.81,0,0,0-4.43.18,43.74,43.74,0,0,0-22.31,9.23c-11.93,9.34-20,21.46-25.48,35.47a109.09,109.09,0,0,0-6.28,27,8.15,8.15,0,0,0,.36,2.18,2,2,0,0,0-.6.75,155,155,0,0,0,.39,27.58,1.4,1.4,0,0,0,1.54,1.46c3.31,0.13,6.62.41,9.93,0.36C46,144,51,143.8,56,143.64c3.82,0.51,10.62-.45,16.61-1.57l2.22-.33s0-.07,0-0.1l1.7-.35a2.37,2.37,0,0,0,.56,0c1.82-.42,3.64-0.86,5.46-1.3l1.92-.47h0l2-.51c3.55-.9,5.45.49,5.59,4.16q0.54,13.63,1.09,27.25c0,0.55.09,1.08,0.13,1.6l15.29-.12a4.25,4.25,0,0,0,.08-0.55c-0.06-10.47-.08-20.93-0.23-31.4a7.4,7.4,0,0,0-2.72-5.86,18.81,18.81,0,0,1-1.67-1.79c2.72-1.58,5.23-3.11,7.83-4.48a2.66,2.66,0,0,1,2,.23c1.66,0.82,3.26,1.79,4.86,2.72,0.79,0.45,1.55.94,2.42,1.47a16.86,16.86,0,0,1-1.49,1.65,8,8,0,0,0-2.74,6.6c0.07,10,.19,20,0.29,30.07,0,0.43,0,.86.07,1.29l15.35-.12c0.06-1.32.15-2.56,0.18-3.8,0.19-8.48.36-17,.56-25.45,0.08-3.15,2-4.73,5-4A136.75,136.75,0,0,0,157,142c7.73,1.1,17.75,2.08,22.88.78h0l14.35-.4a1.33,1.33,0,0,0,1.47-1.4c0.14-2.82.51-5.64,0.48-8.46-0.07-6.38-.33-12.76-0.52-19.12m-83,3.92c-5.22-3.08-20-27-20.34-33,0.28,0.13.52,0.21,0.73,0.34,3.19,1.82,6.35,3.69,9.58,5.43a9,9,0,0,0,3,.86,1.3,1.3,0,0,0,1.63-1.65,7.4,7.4,0,0,0-.47-1.87A19.36,19.36,0,0,0,91.67,74.87c-1.82-.36-1.83-0.33-2.08-2.23-0.65-5-.59-9.86,1.38-14.55,3-7.1,8.69-11,15.86-12.86,9.63-2.51,20.76,2.32,25.39,10.81,2.53,4.64,3,9.67,2.58,14.83-0.26,3.16-.3,3.14-3.29,3.92a19.23,19.23,0,0,0-13.69,12.26c-0.43,1.09-1.18,2.42-.18,3.42s2.46,0.35,3.51-.21c3.2-1.71,6.31-3.58,9.46-5.39,0.47-.27.91-0.59,1.36-0.9l0.28,0.26c-3.89,12.58-11.14,23.17-19.59,33.05" transform="translate(-28.79 -39.21)"/></svg>