<svg id="0a0a6e74-a639-46f9-9e61-8c9d539fafd5" data-name="Angeles" xmlns="http://www.w3.org/2000/svg" viewBox="0 0 142.18 135.73" fill="white"><title>angeles</title><path d="M113.61,119.3c0.81-2.11,1.49-3.95,2.22-5.76,3.47-8.64,9.27-15.53,16.37-21.35,7.86-6.45,15.9-12.68,23.79-19.09a100,100,0,0,0,8.67-7.78c4.83-5,7.4-11.16,8.75-17.9,0.11-.56.13-1.14,0.28-1.69a3.73,3.73,0,0,1,.54-0.9,2.59,2.59,0,0,1,.89.68c1.06,2.4,2.13,4.8,3.06,7.25A94.79,94.79,0,0,1,183.66,75c1.61,13.14.45,26-5.28,38a47.66,47.66,0,0,1-25.77,24.39,38.7,38.7,0,0,1-3.77,1.28,3.65,3.65,0,0,1-1.24-.07,3.3,3.3,0,0,1,.69-1.1,76,76,0,0,0,14.07-11.42,55.61,55.61,0,0,0,15.08-30.51c0.43-2.81.64-5.65,0.95-8.47L178.09,87a1.7,1.7,0,0,0-.31.39c-2.52,6.88-7.12,12.21-12.75,16.67-4.77,3.78-9.74,7.32-14.58,11a57.11,57.11,0,0,0-10.54,9.59,19.07,19.07,0,0,0-4,10.14c-0.86,7.86-1.88,15.7-4.69,23.18-3.34,8.9-9.1,16-16.12,22.25a1,1,0,0,1-1.56-.1c-9.58-7.88-16.38-17.58-19.12-29.8-1.18-5.3-2.09-10.67-2.87-16a17.74,17.74,0,0,0-6-11c-3.57-3.18-7.39-6.11-11.26-8.93-5.87-4.29-12.06-8.14-17.33-13.23a35.61,35.61,0,0,1-8.12-11.76,1.25,1.25,0,0,0-.63-0.69c0.1,1.34.15,2.69,0.31,4a57.45,57.45,0,0,0,9.13,25.54,65.73,65.73,0,0,0,20.38,19.21,14.86,14.86,0,0,1,1.55,1,3.36,3.36,0,0,1,.59,1,2.43,2.43,0,0,1-1.1.23,87.84,87.84,0,0,1-9-3.52A48.07,48.07,0,0,1,49.26,115.6a58.84,58.84,0,0,1-6-18.21,73.72,73.72,0,0,1-.9-17.64,98,98,0,0,1,7.23-30.84,14.75,14.75,0,0,1,.78-1.77,4,4,0,0,1,.83-0.78,4.7,4.7,0,0,1,.68,1c1,3.18,1.75,6.46,3,9.55,2.42,6.09,6.85,10.65,12,14.56C74.17,77.13,81.64,82.65,89,88.3c5.35,4.1,10.62,8.33,15,13.52a52.14,52.14,0,0,1,9.09,16.12l0.5,1.36m60.74-57.07L174,62.17c-0.17.32-.31,0.64-0.51,0.94a53.17,53.17,0,0,1-3.75,5.56c-3.81,4.45-8.5,7.95-13,11.6-7.31,5.87-14.67,11.66-21.87,17.64a46.77,46.77,0,0,0-14.16,19.6A84.21,84.21,0,0,0,116.55,135c-0.7,4.55-1.25,9.11-1.91,13.66a3.89,3.89,0,0,1-.58,1.12,3.87,3.87,0,0,1-.69-1.14c-0.39-2.21-.63-4.44-1.06-6.65-1.17-6-2.13-12.14-3.67-18.09-2.21-8.56-6.35-16.17-13.05-22.1-4.68-4.13-9.55-8-14.47-11.89-6.9-5.4-14-10.57-20.85-16a25.85,25.85,0,0,1-8.15-9.85,1.75,1.75,0,0,0-.43-0.4,49.69,49.69,0,0,0,.6,16.47A31.26,31.26,0,0,0,61.44,97a115.49,115.49,0,0,0,13.49,10.35c5.14,3.56,10.34,7,14.79,11.46,3.59,3.58,6.5,7.6,7.47,12.69,0.73,3.84,1.19,7.74,1.84,11.6a53.71,53.71,0,0,0,6,18.19,47,47,0,0,0,9.2,11.31,5.24,5.24,0,0,0,.5-0.37,46,46,0,0,0,10.61-15.69c2.73-6.9,3.81-14.16,4.45-21.46a25.42,25.42,0,0,1,7.48-16.57,113.44,113.44,0,0,1,9.38-8.16c4.84-3.82,9.91-7.34,14.75-11.16s8.57-8.2,10.71-14a42.72,42.72,0,0,0,2.61-15c0-2.68-.27-5.36-0.42-8" transform="translate(-42.14 -44.83)"/><path d="M113.7,65.25a55.47,55.47,0,0,1-15.2-1.52A14.5,14.5,0,0,1,92.67,61c-2.87-2.46-2.81-6.08.17-8.41a18.1,18.1,0,0,1,7.6-3.21,58.8,58.8,0,0,1,26.79.2,13.28,13.28,0,0,1,6.25,3.13,4.92,4.92,0,0,1,.17,7.32,12.51,12.51,0,0,1-5.49,3.13,49.46,49.46,0,0,1-14.46,2.12m14.51-8.67c-6.82-3.83-26-3.11-31,.49a50.28,50.28,0,0,0,31-.49" transform="translate(-42.14 -44.83)"/><path d="M126,82.62A12.8,12.8,0,1,1,113,70a12.66,12.66,0,0,1,13,12.62m-12.67,6.95a6.88,6.88,0,0,0,6.74-6.8,6.85,6.85,0,1,0-6.74,6.8" transform="translate(-42.14 -44.83)"/></svg>