<svg id="3e1a7a13-1698-4666-8ea7-a8458c6595fd" data-name="Capa 5" xmlns="http://www.w3.org/2000/svg" viewBox="0 0 159.95 159.66"  fill="white"><title>demonios</title><path d="M122.68,146.33v-2c0-16.48.19-33-.06-49.44-0.15-10.09-.93-20.17-1.51-30.25a2.92,2.92,0,0,1,1.71-3.25c5.25-2.94,8.22-7.77,10.23-13.27A27.55,27.55,0,0,0,134.28,44c0.22-1.12.66-1.37,1.79-1.32,5.31,0.25,10.64.6,16,.49,11.66-.25,23-2.67,34.24-5.52,1.67-.42,3.32-0.89,5-1.29a5.72,5.72,0,0,1,1.3,0l0.14,0.5a20.72,20.72,0,0,1-2.11.91c-11.53,3.58-23.09,7.1-34.6,10.73a103.3,103.3,0,0,0-10.58,3.91c-2.79,1.22-3,2.76-.68,4.77a109.36,109.36,0,0,0,8.72,6.65c10,7,20.1,14,30.15,21a9.2,9.2,0,0,1,1.22,1.24l-0.32.44a17.91,17.91,0,0,1-1.69-.73c-11.34-6.3-22.64-12.67-34-18.9a57,57,0,0,0-8.38-3.59c-2.62-.92-3.61,0-2.65,2.65a54.06,54.06,0,0,0,4.09,9.06c7.93,13.28,16,26.46,24.06,39.68,0.35,0.58.61,1.21,0.91,1.82l-0.47.38a11.93,11.93,0,0,1-1.32-1.33q-10.23-14-20.44-27.93-4.33-5.91-8.76-11.74a18,18,0,0,0-2.4-2.53c-1.8-1.6-2.82-1.38-3.4.92a43.22,43.22,0,0,0-1.29,7.35c-1,13.23-1.78,26.46-2.77,39.68-0.6,7.91-1.43,15.8-2.18,23.69a6.88,6.88,0,0,1-.47,1.46l-0.63-.17" transform="translate(-32.74 -36.34)"/><path d="M40.57,86.12a9.69,9.69,0,0,1,1.25-1.24c10.51-7.33,21-14.62,31.53-22a79.83,79.83,0,0,0,7.34-5.71c2.28-2,2.1-3.6-.72-4.77-4.18-1.74-8.49-3.2-12.81-4.57C56.24,44.37,45.27,41,34.33,37.6c-0.54-.17-1.06-0.44-1.58-0.66l0.1-.6a11,11,0,0,1,1.65.14C41.4,38,48.28,39.79,55.23,41.17a111.94,111.94,0,0,0,33.95,1.56c1.31-.14,1.69.25,2,1.48,1.15,4.85,3,9.44,6.47,13.12A36.36,36.36,0,0,0,103,61.52c0.74,0.54,1.34.87,1.3,2-0.68,16.19-1.48,32.37-1.84,48.56-0.24,10.81.18,21.64,0.31,32.46,0,0.6,0,1.19,0,1.78l-0.56.16a5,5,0,0,1-.52-1.3c-0.55-5.41-1.17-10.81-1.57-16.23-1.17-15.82-2.24-31.66-3.41-47.48a41.29,41.29,0,0,0-1.18-6.87c-0.66-2.67-1.81-3-3.75-1a56.94,56.94,0,0,0-4.95,5.83q-13.15,17.91-26.2,35.88c-0.42.57-1,1.07-1.44,1.6l-0.54-.35c0.31-.63.56-1.29,0.93-1.89,7.43-12.15,15-24.26,22.27-36.49A110.56,110.56,0,0,0,87.46,66.6c0.41-.9.16-2.1,0.21-3.17-1.12,0-2.36-.27-3.32.12a103.17,103.17,0,0,0-10.25,4.72C63.54,74,53.08,80,42.58,85.84a15.4,15.4,0,0,1-1.69.72l-0.31-.44" transform="translate(-32.74 -36.34)"/><path d="M112.65,196a8.27,8.27,0,0,1-.26-1.36q-0.85-22.36-1.66-44.74c-0.73-20.51-1.52-41-2.14-61.54-0.26-8.7-.21-17.42-0.16-26.12a27,27,0,0,1,1-6.38c0.54-2.12,1.74-2.78,4-2.72,1.95,0,3.11.82,3.52,2.87a33.19,33.19,0,0,1,.78,6.91c-0.18,12.81-.41,25.63-0.79,38.43-0.41,13.75-1,27.5-1.51,41.25q-0.92,25.61-1.78,51.23a20.54,20.54,0,0,1-.29,2.16h-0.64Z" transform="translate(-32.74 -36.34)"/></svg>