<svg id="bfcce9db-b055-4278-98ca-1a06890a14a8" data-name="Capa 2" xmlns="http://www.w3.org/2000/svg" viewBox="0 0 128.73 181.42"><title>entes</title><path d="M155,94.77c8.58,11.61,17.37,23.09,25.57,35,1.55,2.23,1.84,6.38,1,9.07-3,9.21-6.85,18.17-10.72,28.13-1.17-2.17-2.06-3.57-2.72-5.08-5.53-12.61-10.26-25.64-16.73-37.75-5.87-11,.21-19.8,1.77-29.51L155,94.77" transform="translate(-53.25 -14.39)"/><path d="M122.58,128.57c10,0.3,12.62,2.15,14.95,10.37,3.32,11.73,6.5,23.52,10.07,35.17,1.13,3.69.36,5.8-2.82,7.85-6.38,4.14-12.54,8.63-19.92,13.77-0.78-23.21-1.53-45.17-2.27-67.17" transform="translate(-53.25 -14.39)"/><path d="M117.63,195.81c-7.93-5.56-14.85-10.17-21.42-15.24-1.23-.94-1.8-3.92-1.36-5.63,3.51-13.53,6.71-27.22,11.5-40.32,1.27-3.48,7.73-5.06,11.81-7.52l1.72,1.63c-0.74,22-1.47,43.9-2.25,67.07" transform="translate(-53.25 -14.39)"/><path d="M71.41,170.82C66.1,163,61.47,156.33,57,149.53c-0.72-1.11-1.26-3.25-.68-4.16,8.75-13.9,17.7-27.67,27-42.07,5.8,10.49,9,19.71,3,31.07-5.92,11.09-9.67,23.34-14.92,36.45" transform="translate(-53.25 -14.39)"/><path d="M88.64,59.94c-2.21,30.34-17.73,54.82-35.39,80.69,1.08-15.58,2-29.26,3.05-42.93a6.74,6.74,0,0,1,1.78-3.55C68.26,82.69,78.5,71.28,88.64,59.94" transform="translate(-53.25 -14.39)"/><path d="M87.5,180.76L74.84,167.34c7.32-14.52,13.89-29,22-42.56,2-3.43,9-4,14.25-4.86-10.93,9.4-11.11,23-15.45,34.74-3,8.19-5.23,16.7-8.12,26.09" transform="translate(-53.25 -14.39)"/><path d="M103.8,26.17L115.22,48a5.12,5.12,0,0,1-1.77-.28c-10.46-9.45-10.45-9.44-23-2.4C81.1,50.59,71.7,55.81,60.92,61.83c2.3-7.28,4-13.07,6-18.69a7.13,7.13,0,0,1,3.68-3.52c10.8-4.52,21.7-8.83,33.17-13.45" transform="translate(-53.25 -14.39)"/><path d="M157.12,179.88c-11-18.85-10.62-42.7-26.37-58.81,8.89-2,12-.7,16.33,7.79,5.24,10.26,10,20.78,15.78,30.75,3.35,5.84,3.27,10.3-1.53,14.9a46.6,46.6,0,0,0-4.21,5.37" transform="translate(-53.25 -14.39)"/><path d="M181,122.31c-20.49-19.68-30.39-44.55-39.84-69.81,9.7,11,19.48,21.89,29,33,1.53,1.78,2.16,4.45,2.81,6.82,2.7,9.74,5.24,19.53,8,30" transform="translate(-53.25 -14.39)"/><path d="M125.84,48.33c6.32-5.3,11.82-9.94,17.34-14.55,6.13-5.11,12.74-3.28,15.25,4.51,4.34,13.53,8.42,27.15,11.72,41.39Q164.57,72.52,159,65.35c-1.8-2.32-3.56-4.69-5.36-7-3.46-4.46-6.12-10.94-10.66-12.78-4.24-1.72-10.48,1.48-17.14,2.77" transform="translate(-53.25 -14.39)"/><path d="M124.55,15.05c9.58-.13,17,1.71,21,11.4L121.28,48.77l3.27-33.71" transform="translate(-53.25 -14.39)"/><path d="M119.75,14.39V46.5L118,47,106.61,22.41,77.85,32.68c8.69-9.85,26.53-17.57,41.89-18.3" transform="translate(-53.25 -14.39)"/><path d="M56.06,90.6c0-7.18-.11-12.26.09-17.33A4.68,4.68,0,0,1,58,70C68.16,63.44,78.45,57,89.73,51.73L56.06,90.6" transform="translate(-53.25 -14.39)"/><path d="M126.65,93.32c-0.5,3.87-.95,7.38-1.52,11.81a6.75,6.75,0,0,1-1.09-1.64c-0.79-12.55-.79-12.56,10.93-17.12,4.77-1.85,9.57-3.64,14.95-5.68-4.44,11.19-14.39,10.37-23.26,12.63" transform="translate(-53.25 -14.39)"/><path d="M88.47,80.67c8.37,3.21,16,6,23.41,9.13,1.29,0.55,2.37,2.85,2.56,4.46a18.57,18.57,0,0,1-1.4,10c-0.32-3.42-.65-6.84-1-10.61-8.19-3-19-1.28-23.55-13" transform="translate(-53.25 -14.39)"/><polygon points="58.87 95.31 73.84 95.31 67.03 99.39 58.87 95.31"/></svg>