<?xml version="1.0" encoding="utf-8"?>
<!-- Generator: Adobe Illustrator 26.0.0, SVG Export Plug-In . SVG Version: 6.00 Build 0)  -->
<svg version="1.1" xmlns="http://www.w3.org/2000/svg" xmlns:xlink="http://www.w3.org/1999/xlink" x="0px" y="0px"
	 viewBox="0 0 50 50" style="enable-background:new 0 0 50 50;" xml:space="preserve">
<style type="text/css">
	.st0{display:none;}
	.st1{display:inline;fill:#FFFFFF;}
	.st2{fill:#FFFFFF;}
	.st3{display:none;fill:#FFFFFF;}
</style>
<g id="Capa_1">
	<rect x="0.13" y="0.13" class="st0" width="50" height="50"/>
	<g class="st0">
		<path class="st1" d="M27.11,30.02V29.6c0-3.5,0.04-7.01-0.01-10.51c-0.03-2.14-0.2-4.29-0.32-6.43c-0.06-0.29,0.09-0.57,0.36-0.69
			c1.12-0.62,1.75-1.65,2.17-2.82c0.11-0.28,0.2-0.58,0.26-0.88c0.05-0.24,0.14-0.29,0.38-0.28c1.13,0.05,2.26,0.13,3.4,0.1
			c2.48-0.05,4.89-0.57,7.28-1.17c0.35-0.09,0.71-0.19,1.06-0.27c0.09-0.01,0.18-0.01,0.28,0L42,6.76c-0.15,0.07-0.3,0.14-0.45,0.19
			c-2.45,0.76-4.91,1.51-7.35,2.28c-0.76,0.24-1.51,0.51-2.25,0.83c-0.59,0.26-0.64,0.59-0.14,1.01c0.59,0.5,1.21,0.97,1.85,1.41
			c2.12,1.49,4.27,2.97,6.41,4.46c0.09,0.08,0.18,0.17,0.26,0.26l-0.07,0.09c-0.12-0.05-0.24-0.1-0.36-0.16
			c-2.41-1.34-4.81-2.69-7.23-4.02c-0.57-0.3-1.17-0.56-1.78-0.76c-0.56-0.2-0.77,0-0.56,0.56c0.23,0.67,0.52,1.31,0.87,1.93
			c1.69,2.82,3.4,5.62,5.11,8.43c0.07,0.12,0.13,0.26,0.19,0.39l-0.1,0.08c-0.1-0.09-0.19-0.18-0.28-0.28
			c-1.45-1.98-2.9-3.96-4.34-5.94c-0.61-0.84-1.23-1.67-1.86-2.49c-0.15-0.2-0.32-0.38-0.51-0.54c-0.38-0.34-0.6-0.29-0.72,0.2
			c-0.14,0.51-0.23,1.03-0.27,1.56c-0.21,2.81-0.38,5.62-0.59,8.43c-0.13,1.68-0.3,3.36-0.46,5.03c-0.02,0.11-0.06,0.21-0.1,0.31
			l-0.13-0.04"/>
		<path class="st1" d="M9.66,17.23c0.08-0.1,0.17-0.18,0.27-0.26c2.23-1.56,4.46-3.11,6.7-4.68c0.54-0.37,1.06-0.78,1.56-1.21
			c0.48-0.43,0.45-0.77-0.15-1.01c-0.89-0.37-1.8-0.68-2.72-0.97c-2.32-0.74-4.65-1.45-6.98-2.17C8.22,6.88,8.11,6.83,8,6.78
			l0.02-0.13c0.12,0,0.23,0.01,0.35,0.03c1.47,0.32,2.93,0.7,4.41,1c2.37,0.48,4.81,0.59,7.21,0.33c0.28-0.03,0.36,0.05,0.42,0.31
			c0.24,1.03,0.64,2.01,1.37,2.79c0.35,0.33,0.73,0.63,1.14,0.89c0.16,0.11,0.28,0.18,0.28,0.43c-0.14,3.44-0.31,6.88-0.39,10.32
			c-0.05,2.3,0.04,4.6,0.07,6.9c0,0.13,0,0.25,0,0.38l-0.12,0.03c-0.05-0.09-0.09-0.18-0.11-0.28c-0.12-1.15-0.25-2.3-0.33-3.45
			c-0.25-3.36-0.48-6.73-0.72-10.09c-0.04-0.49-0.13-0.98-0.25-1.46c-0.14-0.57-0.38-0.64-0.8-0.21c-0.38,0.39-0.73,0.8-1.05,1.24
			c-1.86,2.54-3.72,5.08-5.57,7.62c-0.09,0.12-0.21,0.23-0.31,0.34L13.5,23.7c0.07-0.13,0.12-0.27,0.2-0.4
			c1.58-2.58,3.19-5.16,4.73-7.75c0.44-0.8,0.84-1.62,1.19-2.46c0.09-0.19,0.03-0.45,0.04-0.67c-0.24,0-0.5-0.06-0.71,0.03
			c-0.74,0.29-1.47,0.63-2.18,1c-2.24,1.22-4.47,2.49-6.7,3.73c-0.12,0.06-0.24,0.11-0.36,0.15L9.66,17.23"/>
		<path class="st1" d="M24.98,40.58c-0.03-0.09-0.04-0.19-0.06-0.29c-0.12-3.17-0.24-6.34-0.35-9.51
			c-0.16-4.36-0.32-8.71-0.45-13.08c-0.06-1.85-0.04-3.7-0.03-5.55c0.02-0.46,0.09-0.91,0.21-1.36c0.11-0.45,0.37-0.59,0.85-0.58
			c0.41,0,0.66,0.17,0.75,0.61c0.11,0.48,0.16,0.97,0.17,1.47c-0.04,2.72-0.09,5.45-0.17,8.17c-0.09,2.92-0.21,5.84-0.32,8.77
			c-0.13,3.63-0.26,7.26-0.38,10.89c-0.01,0.15-0.03,0.31-0.06,0.46h-0.14L24.98,40.58z"/>
	</g>
	<g class="st0">
		<path class="st1" d="M31.15,22.9c1.41,1.91,2.86,3.8,4.21,5.77c0.26,0.37,0.3,1.05,0.16,1.49c-0.49,1.52-1.13,2.99-1.77,4.63
			c-0.19-0.36-0.34-0.59-0.45-0.84c-0.91-2.08-1.69-4.22-2.76-6.22c-0.97-1.81,0.03-3.26,0.29-4.86L31.15,22.9"/>
		<path class="st1" d="M25.81,28.47c1.65,0.05,2.08,0.35,2.46,1.71c0.55,1.93,1.07,3.87,1.66,5.79c0.19,0.61,0.06,0.96-0.46,1.29
			c-1.05,0.68-2.07,1.42-3.28,2.27C26.06,35.71,25.94,32.09,25.81,28.47"/>
		<path class="st1" d="M25,39.54c-1.31-0.92-2.45-1.68-3.53-2.51c-0.2-0.15-0.3-0.65-0.22-0.93c0.58-2.23,1.11-4.48,1.89-6.64
			c0.21-0.57,1.27-0.83,1.95-1.24l0.28,0.27C25.25,32.12,25.13,35.73,25,39.54"/>
		<path class="st1" d="M17.38,35.43c-0.87-1.29-1.64-2.39-2.37-3.51c-0.12-0.18-0.21-0.54-0.11-0.69c1.44-2.29,2.92-4.56,4.45-6.93
			c0.96,1.73,1.48,3.25,0.49,5.12C18.87,31.25,18.25,33.27,17.38,35.43"/>
		<path class="st1" d="M20.22,17.16c-0.36,5-2.92,9.03-5.83,13.29c0.18-2.57,0.33-4.82,0.5-7.07c0.04-0.22,0.14-0.42,0.29-0.58
			C16.87,20.91,18.55,19.03,20.22,17.16"/>
		<path class="st1" d="M20.04,37.07l-2.09-2.21c1.21-2.39,2.29-4.78,3.62-7.01c0.33-0.56,1.48-0.66,2.35-0.8
			c-1.8,1.55-1.83,3.79-2.54,5.72C20.88,34.12,20.51,35.52,20.04,37.07"/>
		<path class="st1" d="M22.72,11.6l1.88,3.6c-0.1,0-0.2-0.01-0.29-0.05c-1.72-1.56-1.72-1.55-3.79-0.4
			c-1.54,0.87-3.09,1.73-4.86,2.72c0.38-1.2,0.66-2.15,0.99-3.08c0.12-0.26,0.34-0.47,0.61-0.58C19.03,13.07,20.83,12.36,22.72,11.6
			"/>
		<path class="st1" d="M31.5,36.92c-1.81-3.1-1.75-7.03-4.34-9.69c1.46-0.33,1.98-0.12,2.69,1.28c0.86,1.69,1.65,3.42,2.6,5.07
			c0.55,0.96,0.54,1.7-0.25,2.45C31.94,36.31,31.71,36.61,31.5,36.92"/>
		<path class="st1" d="M35.44,27.44c-3.38-3.24-5.01-7.34-6.56-11.5c1.6,1.81,3.21,3.61,4.78,5.44c0.25,0.29,0.36,0.73,0.46,1.12
			C34.56,24.1,34.98,25.71,35.44,27.44"/>
		<path class="st1" d="M26.35,15.25c1.04-0.87,1.95-1.64,2.86-2.4c1.01-0.84,2.1-0.54,2.51,0.74c0.71,2.23,1.39,4.47,1.93,6.82
			c-0.61-0.79-1.22-1.57-1.84-2.36c-0.3-0.38-0.59-0.77-0.88-1.15c-0.57-0.73-1.01-1.8-1.76-2.11
			C28.48,14.51,27.45,15.04,26.35,15.25"/>
		<path class="st1" d="M26.14,9.77c1.58-0.02,2.8,0.28,3.46,1.88l-4,3.68L26.14,9.77"/>
		<path class="st1" d="M25.35,9.66v5.29l-0.29,0.08l-1.88-4.05l-4.74,1.69C19.88,11.05,22.82,9.78,25.35,9.66"/>
		<path class="st1" d="M14.86,22.21c0-1.18-0.02-2.02,0.01-2.85c0.02-0.21,0.13-0.41,0.3-0.54c1.67-1.08,3.37-2.14,5.23-3.01
			L14.86,22.21"/>
		<path class="st1" d="M26.48,22.66c-0.08,0.64-0.16,1.22-0.25,1.95c-0.07-0.08-0.13-0.17-0.18-0.27c-0.13-2.07-0.13-2.07,1.8-2.82
			c0.79-0.3,1.58-0.6,2.46-0.94C29.59,22.43,27.95,22.29,26.48,22.66"/>
		<path class="st1" d="M20.19,20.58c1.38,0.53,2.64,0.99,3.86,1.5c0.21,0.09,0.39,0.47,0.42,0.73c0.08,0.56,0,1.13-0.23,1.65
			c-0.05-0.56-0.11-1.13-0.16-1.75C22.73,22.22,20.95,22.51,20.19,20.58"/>
		<polygon class="st1" points="24.09,25.36 26.56,25.36 25.43,26.03 		"/>
	</g>
	<g>
		<path class="st2" d="M20.1,20.4c-2.91-1.45-5.85-2.77-8.63-4.38c-1.38-0.8-2.53-2.04-3.63-3.24c-0.5-0.55-0.7-1.46-0.84-2.24
			C6.95,10.26,7.43,9.67,7.76,9.6s1.03,0.28,1.08,0.55c0.42,1.96,1.9,3,3.39,3.98s3.06,1.77,4.59,2.64l0.24-0.27
			c-0.21-0.34-0.39-0.7-0.54-1.07c-0.5-1.5-1.01-3-1.42-4.53c-0.18-0.67-0.05-1.41,0.84-1.48c0.89-0.07,0.96,0.61,1.17,1.29
			c0.46,1.51,0.88,3.08,1.66,4.42c2.96,5.12,9.89,5,12.7-0.26c0.73-1.37,1.09-2.96,1.52-4.48c0.18-0.63,0.22-1.29,1.06-1.25
			c0.91,0.05,1.08,0.79,0.92,1.45c-0.37,1.58-0.86,3.12-1.33,4.67c-0.11,0.35-0.33,0.67-0.4,1.11c2.85-1.35,5.66-2.72,7.5-5.42
			c0.19-0.27,0.15-0.72,0.35-0.97c0.3-0.38,0.72-0.65,1.09-0.97c0.29,0.42,0.91,0.94,0.82,1.27c-0.25,0.95-0.55,2.08-1.24,2.68
			c-1.93,1.68-3.98,3.21-6.14,4.57c-1.69,1.06-3.62,1.72-5.58,2.63c2.63,2.14,3.94,4.82,3.48,8.19c-0.27,2.03-1.31,3.88-2.9,5.18
			c-3.24,2.76-8.24,2.51-11.27-0.52c-3.47-3.47-3.17-7.96,0.73-12.59 M25.23,20.79c-3.45-0.01-6.26,2.79-6.27,6.24
			c0,0.06,0,0.13,0,0.19c0.06,3.49,2.87,6.21,6.4,6.18c3.43-0.02,6.26-2.91,6.24-6.38C31.59,23.6,28.68,20.75,25.23,20.79"/>
		<path class="st2" d="M26.55,27.05c0.06,0.81-0.55,1.52-1.36,1.58c-0.04,0-0.08,0-0.11,0c-0.92,0.04-1.57-0.53-1.62-1.43
			c-0.05-0.97,0.56-1.63,1.52-1.65c0.81-0.05,1.52,0.56,1.57,1.38C26.55,26.97,26.55,27.01,26.55,27.05"/>
	</g>
	<g class="st0">
		<path class="st1" d="M20.68,26.95c-0.9-1.94-2.3-3.34-4.39-4.01c0.41-1.16,0.77-2.26,1.19-3.36c0.49-1.31,1.04-2.61,1.54-3.91
			c0.59-1.53,1.76-2.34,3.3-2.7c0.16-0.03,0.32-0.09,0.45-0.18l-1.96-0.18c0.58-0.56,1.06-1.07,1.6-1.51c0.74-0.6,1.52-1.15,2.3-1.7
			c0.13-0.08,0.29-0.1,0.43-0.04c1.41,0.84,2.68,1.88,3.78,3.1c0.03,0.05,0.07,0.1,0.09,0.15l-1.84,0.17c0,0.02,0,0.04,0,0.06
			c0.45,0.13,0.9,0.24,1.34,0.41c1.04,0.39,1.85,1.06,2.27,2.1c0.84,2.08,1.65,4.18,2.46,6.27c0.16,0.4,0.29,0.82,0.45,1.29
			c-2.08,0.68-3.48,2.09-4.44,4.12c0.27-0.26,0.48-0.46,0.69-0.66c0.62-0.62,1.35-1.11,2.15-1.46c0.9-0.34,1.9-0.34,2.8,0.01
			c0.51,0.18,1,0.41,1.51,0.63c-0.7,0.41-1.36,0.75-1.98,1.17c-1.77,1.18-2.81,2.92-3.62,4.84c-0.62,1.48-1.23,2.97-1.95,4.4
			c-0.82,1.61-2.1,2.84-3.57,3.87c-0.17,0.14-0.41,0.13-0.57-0.02c-2.13-1.43-3.58-3.4-4.54-5.75c-0.45-1.11-0.9-2.22-1.39-3.31
			c-0.96-2.22-2.72-3.99-4.94-4.94c-0.07-0.03-0.15-0.07-0.23-0.11c-0.02-0.02-0.04-0.04-0.06-0.06c1.21-0.62,2.42-1.17,3.81-0.83
			c1.34,0.32,2.3,1.25,3.27,2.16 M25.01,34.72c0.08-0.15,0.13-0.23,0.16-0.31c1.12-2.32,2.04-4.72,2.76-7.2
			c0.68-2.49,1.36-4.97,2.03-7.44c-0.01-0.08-0.03-0.15-0.06-0.23l-0.55,0.78c-0.07-0.06-0.13-0.12-0.17-0.2
			c-0.11-0.29-0.2-0.6-0.27-0.9c-0.35-1.96-1.39-3.48-2.92-4.72c-0.78-0.63-1.27-0.66-2.02,0c-0.41,0.36-0.8,0.75-1.18,1.13
			c-0.68,0.68-1.17,1.52-1.41,2.45c-0.15,0.58-0.3,1.16-0.47,1.75c-0.07,0.19-0.14,0.37-0.23,0.55l-0.59-0.71
			c-0.05,0.07-0.07,0.16-0.05,0.24c0.57,2.07,1.16,4.14,1.72,6.21c0.82,2.97,1.92,5.85,3.28,8.61"/>
		<path class="st1" d="M23.92,20.03c0.02-0.38,0.04-0.75,0.05-1.11c0-0.28-0.13-0.32-0.39-0.29c-0.39,0.03-0.78,0.02-1.17-0.02
			c-0.07,0-0.13-0.2-0.18-0.31c0-0.03,0.01-0.05,0.03-0.07c0.13-0.25,0.23-0.68,0.41-0.72c0.51-0.1,1.09-0.15,1.51,0.26
			c0.16,0.16,0.19,0.49,0.23,0.75c0,0.2-0.02,0.41-0.06,0.61c-0.04,0.66,0.35,0.95,0.99,0.74L26,19.63l-0.04,0.15
			c0.13,0.14,0.28,0.27,0.45,0.36c0.85,0.33,1.29,0.9,1.32,1.82c0.05,1.39-0.26,2.73-0.53,4.08c-0.07,0.37-0.16,0.74-0.27,1.19
			l-0.42-0.75c0.12,2.06-0.79,3.84-1.47,5.81c-0.7-1.96-1.62-3.73-1.49-5.82l-0.45,0.76c-0.38-1.75-0.84-3.4-0.82-5.13
			C22.28,20.98,22.68,20.48,23.92,20.03 M26.39,22.97c0.03-0.74,0.34-1.57-0.47-2.11c-0.61-0.34-1.35-0.32-1.93,0.06
			c-0.47,0.35-0.61,1.13-0.39,2.09c0.1-0.26,0.18-0.5,0.3-0.73c0.23-0.45,0.51-0.89,1.11-0.88c0.6,0,0.85,0.41,1.08,0.86
			C26.21,22.48,26.29,22.73,26.39,22.97"/>
		<path class="st1" d="M25.71,18.67c-0.28-0.46-0.12-0.97,0.45-1.12c0.37-0.08,0.75-0.11,1.13-0.09c0.14,0.06,0.25,0.17,0.3,0.32
			c0.32,0.75,0.21,0.9-0.61,0.9c-0.14,0-0.27-0.02-0.41-0.02C26.31,18.66,26.05,18.66,25.71,18.67"/>
	</g>
</g>
<g id="Capa_2">
	<path class="st3" d="M25.08,25.03c0.18-0.48,0.34-0.89,0.5-1.3c0.78-1.95,2.1-3.51,3.7-4.83c1.78-1.46,3.59-2.87,5.38-4.31
		c0.69-0.55,1.34-1.13,1.96-1.76c1.09-1.13,1.67-2.52,1.98-4.05c0.02-0.13,0.03-0.26,0.06-0.38c0.03-0.07,0.07-0.14,0.12-0.2
		c0.08,0.04,0.15,0.09,0.2,0.15c0.24,0.54,0.48,1.08,0.69,1.64c0.61,1.62,1.03,3.31,1.24,5.03c0.36,2.97,0.1,5.88-1.19,8.59
		c-1.16,2.52-3.25,4.49-5.82,5.51c-0.28,0.11-0.56,0.21-0.85,0.29c-0.09,0.01-0.19,0.01-0.28-0.02c0.04-0.09,0.09-0.18,0.16-0.25
		c1.16-0.73,2.23-1.6,3.18-2.58c1.83-1.89,3.02-4.3,3.41-6.9c0.1-0.64,0.14-1.28,0.21-1.91l-0.07-0.02
		c-0.03,0.03-0.05,0.06-0.07,0.09c-0.57,1.55-1.61,2.76-2.88,3.77c-1.08,0.85-2.2,1.65-3.3,2.49c-0.88,0.62-1.68,1.35-2.38,2.17
		c-0.52,0.66-0.83,1.46-0.9,2.29c-0.19,1.78-0.42,3.55-1.06,5.24c-0.75,2.01-2.06,3.62-3.64,5.03c-0.08,0.09-0.23,0.1-0.32,0.02
		c-0.01-0.01-0.02-0.02-0.03-0.04c-2.17-1.78-3.7-3.97-4.32-6.73c-0.27-1.2-0.47-2.41-0.65-3.62c-0.13-0.97-0.62-1.85-1.36-2.49
		c-0.81-0.72-1.67-1.38-2.54-2.02c-1.33-0.97-2.73-1.84-3.92-2.99c-0.79-0.75-1.41-1.66-1.84-2.66c-0.03-0.07-0.08-0.12-0.14-0.16
		c0.02,0.3,0.03,0.61,0.07,0.9c0.22,2.06,0.92,4.04,2.06,5.77c1.21,1.76,2.78,3.24,4.61,4.34c0.12,0.07,0.24,0.14,0.35,0.23
		c0.06,0.07,0.1,0.14,0.13,0.23c-0.08,0.04-0.16,0.05-0.25,0.05c-0.69-0.23-1.37-0.49-2.03-0.8c-2.01-1.02-3.66-2.65-4.7-4.65
		c-0.67-1.29-1.13-2.68-1.36-4.12c-0.23-1.32-0.3-2.65-0.2-3.99c0.16-2.4,0.71-4.75,1.63-6.97c0.05-0.14,0.11-0.27,0.18-0.4
		c0.05-0.07,0.12-0.13,0.19-0.18c0.06,0.07,0.11,0.14,0.15,0.23c0.23,0.72,0.4,1.46,0.68,2.16c0.55,1.38,1.55,2.41,2.71,3.29
		c1.65,1.28,3.34,2.53,5,3.8c1.21,0.93,2.4,1.88,3.39,3.06c0.9,1.08,1.59,2.32,2.05,3.64L25.08,25.03 M38.8,12.14l-0.07-0.01
		c-0.04,0.07-0.07,0.14-0.12,0.21c-0.26,0.44-0.54,0.86-0.85,1.26c-0.86,1.01-1.92,1.8-2.94,2.62c-1.65,1.33-3.32,2.64-4.94,3.99
		c-1.44,1.17-2.54,2.7-3.2,4.43c-0.45,1.28-0.77,2.61-0.94,3.95c-0.16,1.03-0.28,2.06-0.43,3.09c-0.03,0.09-0.07,0.18-0.13,0.25
		c-0.07-0.08-0.12-0.16-0.16-0.26c-0.09-0.5-0.14-1-0.24-1.5c-0.26-1.36-0.48-2.74-0.83-4.09c-0.5-1.93-1.44-3.65-2.95-4.99
		c-1.06-0.93-2.16-1.81-3.27-2.69c-1.56-1.22-3.16-2.39-4.71-3.62c-0.79-0.58-1.42-1.34-1.84-2.23c-0.03-0.04-0.06-0.07-0.1-0.09
		c-0.16,1.24-0.12,2.5,0.14,3.72c0.27,1.46,1,2.79,2.07,3.81c0.96,0.85,1.98,1.64,3.05,2.34c1.16,0.8,2.34,1.58,3.34,2.59
		c0.81,0.81,1.47,1.72,1.69,2.87c0.16,0.87,0.27,1.75,0.42,2.62c0.2,1.44,0.66,2.83,1.36,4.11c0.56,0.95,1.26,1.82,2.08,2.56
		c0.04-0.03,0.08-0.05,0.11-0.08c1.04-1,1.85-2.21,2.4-3.55c0.62-1.56,0.86-3.2,1.01-4.85c0.08-1.41,0.68-2.75,1.69-3.74
		c0.67-0.65,1.38-1.27,2.12-1.84c1.09-0.86,2.24-1.66,3.33-2.52c1.09-0.86,1.94-1.85,2.42-3.16c0.4-1.09,0.6-2.23,0.59-3.39
		C38.89,13.33,38.83,12.72,38.8,12.14"/>
	<path class="st3" d="M43.14,25.28c-0.02-0.04-0.05-0.07-0.09-0.1c0.03-0.1,0.05-0.2,0.05-0.3c-0.17-1.04-0.3-2.08-0.54-3.1
		c-0.8-3.42-2.33-6.45-4.76-9.01c-1.78-1.87-3.85-3.2-6.46-3.55c-0.41-0.06-0.83-0.07-1.24-0.1c0.59,0.58,1.2,1.08,1.76,1.63
		c0.23,0.23,0.44,0.49,0.62,0.77c0.12,0.18,0.23,0.37,0.32,0.56c0.05,0.14,0.11,0.26,0.19,0.38c0.05,0.1,0.09,0.2,0.14,0.31
		l0.02-0.02c0.04,0.08,0.07,0.16,0.1,0.24c-0.01,0.04-0.01,0.09,0,0.13c0.14,0.43,0.25,0.88,0.33,1.33
		c0.08,0.69,0.12,1.38,0.12,2.07c-0.07,3.49-1.43,6.43-3.47,9.13c0.1,0.04,0.16,0.06,0.22,0.08c0.87,0.23,1.74,0.47,2.6,0.7
		c0.24,0.11,0.53,0.01,0.65-0.23c0,0,0-0.01,0.01-0.01c1.74-2.67,2.9-5.54,3.07-8.76c0-0.22,0.05-0.44,0.07-0.67
		c0.1,0.06,0.19,0.15,0.26,0.26c1.88,2.8,2.76,5.92,2.98,9.26c0.03,0.54,0.04,1.07,0.07,1.61c0,0.07-0.05,0.23,0.14,0.16l-0.22,0.52
		c-4.34,0.22-8.58-0.27-12.51-2.41l0.83-1.15c0.87-1.21,1.72-2.43,2.3-3.81c0.83-2,1.36-4.06,1.03-6.25
		c-0.27-1.88-1.15-3.43-2.72-4.53c-1.72-1.21-3.64-1.48-5.67-1.06c-3.14,0.65-5.09,3.32-5.23,6.28c-0.05,1.39,0.15,2.78,0.6,4.11
		c0.58,1.86,1.56,3.49,2.74,5.03c0.36,0.47,0.7,0.94,1.07,1.43c-3.91,2.21-8.14,2.75-12.52,2.62l-0.1-0.58
		c0.03-0.06,0.04-0.12,0.05-0.19c0-1.29,0.09-2.59,0.28-3.87c0.32-2.23,1.06-4.37,2.19-6.32c0.17-0.29,0.34-0.57,0.52-0.87
		l-0.07-0.04l0.07,0.02l0.29,1.37c0.06,0.44,0.11,0.87,0.19,1.31c0.47,2.46,1.56,4.66,2.94,6.72c0.13,0.22,0.4,0.31,0.64,0.22
		c0.87-0.25,1.73-0.49,2.59-0.74c0.07-0.03,0.15-0.06,0.22-0.09c-2.51-3.18-3.92-6.68-3.57-10.76c0.04-0.44,0.12-0.88,0.24-1.31
		h0.02c0-0.03,0-0.07,0-0.1c0.1-0.33,0.22-0.66,0.36-0.97l0.05-0.05l-0.02-0.02c0.33-0.72,0.77-1.38,1.31-1.96
		c0.46-0.46,0.99-0.87,1.48-1.31c-0.32-0.01-0.65,0-0.97,0.04c-1.78,0.2-3.46,0.9-4.86,2.01c-2.6,2.04-4.36,4.68-5.55,7.73
		c-0.7,1.9-1.16,3.87-1.37,5.88c0,0.16,0.03,0.32,0.08,0.48c-0.06,0.04-0.1,0.1-0.13,0.16c-0.15,2-0.12,4.01,0.09,6.01
		c-0.01,0.17,0.12,0.31,0.29,0.32c0.02,0,0.03,0,0.05,0c0.72,0.03,1.44,0.09,2.16,0.08c1.08,0,2.17-0.04,3.26-0.08
		c0.83,0.11,2.31-0.1,3.62-0.34l0.48-0.07c0,0,0-0.02,0-0.02l0.37-0.08c0.04,0,0.08,0,0.12,0c0.4-0.09,0.79-0.19,1.19-0.28l0.42-0.1
		l0,0l0.44-0.11c0.77-0.2,1.19,0.11,1.22,0.91c0.08,1.98,0.16,3.96,0.24,5.94c0,0.12,0.02,0.24,0.03,0.35l3.33-0.03
		c0.01-0.04,0.01-0.08,0.02-0.12c-0.01-2.28-0.02-4.56-0.05-6.84c0.01-0.49-0.21-0.96-0.59-1.28c-0.13-0.12-0.25-0.25-0.36-0.39
		c0.59-0.34,1.14-0.68,1.71-0.98c0.15-0.04,0.3-0.02,0.44,0.05c0.36,0.18,0.71,0.39,1.06,0.59c0.17,0.1,0.34,0.2,0.53,0.32
		c-0.1,0.13-0.21,0.25-0.32,0.36c-0.41,0.36-0.64,0.89-0.6,1.44c0.02,2.18,0.04,4.36,0.06,6.55c0,0.09,0,0.19,0.02,0.28L29.39,38
		c0.01-0.29,0.03-0.56,0.04-0.83c0.04-1.85,0.08-3.71,0.12-5.55c0.02-0.69,0.44-1.03,1.09-0.87c1.33,0.35,2.69,0.61,4.06,0.77
		c1.68,0.24,3.87,0.45,4.99,0.17l0,0l3.13-0.09c0.16,0.02,0.3-0.1,0.32-0.26c0-0.02,0-0.03,0-0.05c0.03-0.61,0.11-1.23,0.1-1.84
		C43.23,28.07,43.17,26.68,43.14,25.28 M25.04,26.14c-1.14-0.67-4.36-5.88-4.43-7.19c0.06,0.03,0.11,0.05,0.16,0.07
		c0.7,0.4,1.38,0.8,2.09,1.18c0.21,0.1,0.43,0.16,0.65,0.19c0.15,0.05,0.31-0.03,0.36-0.18c0.02-0.06,0.02-0.12,0-0.18
		c-0.02-0.14-0.05-0.28-0.1-0.41c-0.52-1.44-1.78-2.49-3.3-2.74c-0.4-0.08-0.4-0.07-0.45-0.49c-0.14-1.09-0.13-2.15,0.3-3.17
		c0.65-1.55,1.89-2.4,3.46-2.8c2.1-0.55,4.52,0.51,5.53,2.36c0.55,1.01,0.65,2.11,0.56,3.23c-0.06,0.69-0.07,0.68-0.72,0.85
		c-1.38,0.33-2.51,1.33-2.98,2.67c-0.09,0.24-0.26,0.53-0.04,0.75c0.22,0.22,0.54,0.08,0.77-0.05c0.7-0.37,1.38-0.78,2.06-1.17
		c0.1-0.06,0.2-0.13,0.3-0.2l0.06,0.06C28.46,21.67,26.88,23.98,25.04,26.14"/>
</g>
</svg>
