<svg id="c4810016-3dc2-4957-9a84-ae9b19d34123" data-name="Espiritu" xmlns="http://www.w3.org/2000/svg" viewBox="0 0 170.52 125.2"  fill="white"><title>espiritus</title><path d="M89.85,98.53C76.09,91.65,62.16,85.4,49,77.8,42.48,74,37,68.14,31.83,62.48c-2.39-2.62-3.31-6.91-4-10.61-0.24-1.35,2-4.18,3.57-4.52s4.86,1.33,5.13,2.6c2,9.28,9,14.2,16.06,18.83s14.48,8.37,21.75,12.5L75.46,80a37.85,37.85,0,0,1-2.57-5.09c-2.37-7.1-4.8-14.21-6.74-21.43-0.85-3.15-.23-6.67,4-7s4.55,2.88,5.53,6.11c2.18,7.13,4.17,14.57,7.85,20.95,14,24.23,46.82,23.67,60.12-1.25,3.47-6.51,5.17-14,7.2-21.23,0.85-3,1.05-6.12,5-5.91,4.31,0.24,5.1,3.72,4.36,6.86-1.77,7.46-4.09,14.79-6.31,22.13-0.51,1.68-1.55,3.19-1.89,5.24,13.5-6.37,26.79-12.87,35.54-25.68,0.89-1.3.69-3.39,1.64-4.6,1.41-1.78,3.42-3.09,5.17-4.59,1.39,2,4.3,4.44,3.9,6-1.17,4.49-2.6,9.87-5.86,12.67a235,235,0,0,1-29.08,21.64c-8,5-17.14,8.16-26.44,12.45,12.45,10.13,18.66,22.81,16.5,38.8a38.24,38.24,0,0,1-13.71,24.54c-15.32,13.06-39,11.91-53.37-2.46-16.43-16.41-15-37.71,3.48-59.62m24.35,1.85a29.62,29.62,0,0,0-29.67,30.46c0.28,16.54,13.57,29.39,30.32,29.29,16.25-.1,29.64-13.79,29.56-30.23-0.07-16.25-13.88-29.74-30.22-29.51" transform="translate(-27.85 -44.52)"/><path d="M121.73,130a7,7,0,0,1-7,7.52c-4.37.21-7.43-2.5-7.66-6.76-0.25-4.59,2.66-7.73,7.2-7.8a7,7,0,0,1,7.46,7" transform="translate(-27.85 -44.52)"/></svg>