<svg id="af738d03-bd89-4139-b7ea-90ee920aab44" data-name="Humanos" xmlns="http://www.w3.org/2000/svg" viewBox="0 0 101.1 135.41"  fill="white"><title>humanos</title><path d="M94.59,114.49c-4-8.57-10.19-14.79-19.44-17.75,1.8-5.13,3.42-10,5.25-14.87,2.19-5.8,4.59-11.53,6.83-17.31C89.85,57.8,95,54.2,101.84,52.62a4.8,4.8,0,0,0,2-.81L95.18,51c2.58-2.46,4.7-4.75,7.1-6.7,3.27-2.66,6.74-5.08,10.18-7.52a2.12,2.12,0,0,1,1.89-.19,72.7,72.7,0,0,1,16.73,13.72,6.93,6.93,0,0,1,.42.65l-8.15.75c0,0.09,0,.17,0,0.25,2,0.59,4,1.08,5.93,1.8,4.61,1.72,8.2,4.68,10.06,9.31,3.71,9.22,7.28,18.49,10.89,27.74,0.7,1.79,1.29,3.61,2,5.69-9.22,3-15.4,9.27-19.63,18.23,1.21-1.16,2.12-2.05,3.06-2.92a30.77,30.77,0,0,1,9.52-6.46,17.34,17.34,0,0,1,12.39.06c2.26,0.78,4.43,1.82,6.7,2.77-3.08,1.8-6,3.34-8.76,5.18-7.84,5.24-12.43,12.93-16,21.42-2.75,6.55-5.44,13.15-8.65,19.47-3.62,7.12-9.28,12.58-15.8,17.14a1.9,1.9,0,0,1-2.53-.07c-9.43-6.34-15.83-15.06-20.11-25.46-2-4.9-4-9.81-6.17-14.66a41.86,41.86,0,0,0-21.86-21.88c-0.33-.15-0.65-0.31-1-0.47a1.8,1.8,0,0,1-.25-0.28c5.35-2.74,10.71-5.16,16.87-3.69,5.95,1.42,10.19,5.52,14.47,9.58m19.25,34.44c0.36-.68.57-1,0.73-1.39a205.93,205.93,0,0,0,12.23-31.84c3-11,6-22,9-32.93a4.05,4.05,0,0,0-.27-1L133,85.18a4.23,4.23,0,0,1-.77-0.87,29.71,29.71,0,0,1-1.2-4c-1.54-8.69-6.17-15.42-12.94-20.88-3.47-2.8-5.62-2.93-8.92,0-1.81,1.6-3.52,3.3-5.23,5a24,24,0,0,0-6.26,10.84C97,77.85,96.34,80.41,95.61,83a25,25,0,0,1-1,2.44l-2.63-3.16a1.3,1.3,0,0,0-.23,1.08c2.53,9.17,5.13,18.32,7.6,27.5a215.49,215.49,0,0,0,14.51,38.11" transform="translate(-63.24 -36.46)"/><path d="M108.93,83.9c0.08-1.7.17-3.31,0.22-4.92,0-1.24-.59-1.4-1.74-1.3a29.19,29.19,0,0,1-5.16-.1c-0.31,0-.56-0.88-0.81-1.37a0.57,0.57,0,0,1,.12-0.33c0.59-1.12,1-3,1.8-3.19,2.25-.46,4.83-0.66,6.67,1.16,0.72,0.72.84,2.16,1,3.3a15,15,0,0,1-.28,2.69c-0.19,2.9,1.55,4.2,4.36,3.27l3-1-0.18.65a8.7,8.7,0,0,0,2,1.61c3.74,1.44,5.7,4,5.84,8.07,0.21,6.15-1.15,12.1-2.35,18.06-0.33,1.64-.73,3.26-1.18,5.27l-1.86-3.3c0.55,9.13-3.49,17-6.52,25.72-3.09-8.66-7.18-16.5-6.59-25.75l-2,3.37c-1.66-7.75-3.72-15.06-3.64-22.71,0.05-5,1.79-7.2,7.27-9.22m10.95,13c0.14-3.28,1.5-6.95-2.1-9.33a8.35,8.35,0,0,0-8.56.26c-2.06,1.53-2.72,5-1.71,9.24,0.46-1.14.81-2.22,1.32-3.22,1-2,2.27-3.92,4.92-3.9s3.78,1.83,4.8,3.8c0.52,1,.89,2.09,1.32,3.14" transform="translate(-63.24 -36.46)"/><path d="M116.83,77.88c-1.22-2.05-.54-4.3,2-4.95a18.26,18.26,0,0,1,5-.39,2.35,2.35,0,0,1,1.32,1.41c1.41,3.34.92,4-2.71,4-0.6,0-1.2-.1-1.8-0.11-1.14,0-2.28,0-3.78,0" transform="translate(-63.24 -36.46)"/></svg>